<?xml version="1.0" encoding="UTF-8"?>
<svg version="1.1" viewBox="0 0 2048 2048" width="1280" height="1280" xmlns="http://www.w3.org/2000/svg">
<path transform="translate(0)" d="m0 0h2048v2048h-2048z" fill="#010101"/>
<path transform="translate(1331,701)" d="m0 0h38l31 3 28 5 30 8 28 10 20 9 22 11 23 14 14 10 13 10 13 11 12 11 18 18 9 11 10 12 14 20 12 20 13 25 11 27 8 25 7 30 4 29 1 14v31l-3 31-6 31-8 27-8 21-12 26-11 19-12 18-9 12-9 11-18 20-8 8-8 7-13 11-18 13-17 11-18 10-23 11-27 10-29 8-27 5-58 7-24-1-33-4-29-6-27-8-22-8-25-11-26-14-19-12-19-14-16-13-13-12-22-22-9-11-11-14-13-19-9-15-12-23-9-20-12-36-6-27-4-27-1-12v-44l3-27 5-26 8-28 8-21 9-20 9-17 13-21 12-16 8-10 9-10 7-8 14-14 8-7 16-13 20-14 24-14 24-12 26-10 22-7 25-6 30-5z" fill="#FEFEFE"/>
<path transform="translate(1306,799)" d="m0 0h38l22 3 25 6 25 9 21 10 17 10 16 11 13 10 10 9 8 7 12 12 9 11 10 12 14 21 10 18 10 21 9 25 7 27 4 25 1 10v37l-3 23-6 25-8 22-9 19-12 19-10 13-11 12-10 10-17 13-18 11-17 8-24 8-25 5-10 1h-34l-23-3-25-6-23-8-20-9-18-10-15-10-16-12-12-11-8-7-8-8-7-8-13-16-13-19-10-17-8-16-8-18-9-27-6-27-3-24v-38l3-23 5-22 8-24 10-21 10-16 9-12 9-10 7-8 10-9 16-12 15-9 21-10 21-7 25-5z" fill="#010101"/>
<path transform="translate(519,667)" d="m0 0h2l1 597 3 25 5 22 7 20 12 23 4 7h-181l-1-5 8-14 8-17 9-27 5-23 3-24 1-13v-380l-2-29-4-27-7-28-8-22-7-15 1-3 33-16 28-13 33-16 28-13z" fill="#FEFEFE"/>
</svg>
